<svg width="62" height="13" viewBox="0 0 62 13" fill="none" xmlns="http://www.w3.org/2000/svg">
<path d="M1 5.75C0.585786 5.75 0.25 6.08579 0.25 6.5C0.25 6.91421 0.585786 7.25 1 7.25V5.75ZM61.5303 7.03033C61.8232 6.73744 61.8232 6.26256 61.5303 5.96967L56.7574 1.1967C56.4645 0.903806 55.9896 0.903806 55.6967 1.1967C55.4038 1.48959 55.4038 1.96447 55.6967 2.25736L59.9393 6.5L55.6967 10.7426C55.4038 11.0355 55.4038 11.5104 55.6967 11.8033C55.9896 12.0962 56.4645 12.0962 56.7574 11.8033L61.5303 7.03033ZM1 7.25H61V5.75H1V7.25Z" fill="white"/>
</svg>
