<svg width="105" height="100" viewBox="0 0 105 100" fill="none" xmlns="http://www.w3.org/2000/svg">
<path d="M76.4032 27.4614V28.6959L77.6147 28.9334C93.7028 32.0864 103.5 41.3003 103.5 52.1522V73.6739C103.5 80.8762 99.3235 87.3929 91.3382 91.9564L91.3378 91.9566C84.5699 95.8274 75.5782 98 66.0484 98C56.5186 98 47.5269 95.8274 40.759 91.9566L40.7586 91.9564C32.7733 87.3929 28.5968 80.8762 28.5968 73.6739V72.5333V71.2833L27.3673 71.0579C22.6528 70.1934 18.0405 68.5366 13.6511 66.1241C5.67275 61.561 1.5 55.0469 1.5 47.8478V26.3261C1.5 19.1238 5.67648 12.6071 13.6618 8.04364L13.6622 8.04338C20.4301 4.17257 29.4218 2 38.9516 2C48.4814 2 57.4731 4.17257 64.241 8.04338L64.2414 8.04364C72.2267 12.6071 76.4032 19.1238 76.4032 26.3261V27.4614ZM67.7599 63.8076L63.9492 66.7119L68.7357 66.4992C77.428 66.1129 84.2134 63.8852 88.8705 61.1512C91.1952 59.7864 93.0196 58.2777 94.2812 56.779C95.5114 55.3176 96.3387 53.7043 96.3387 52.1522C96.3387 50.8633 95.7994 49.5617 94.9656 48.3607C94.1212 47.1443 92.9069 45.9303 91.379 44.7862C88.3206 42.496 83.8868 40.3962 78.2412 39.0905L76.4032 38.6654V40.552V47.8478C76.4032 53.9221 73.4389 59.4795 67.7599 63.8076ZM43.8911 62.0565L43.9262 62.0536L43.961 62.049C44.0305 62.0399 44.1317 62.0318 44.2142 62.0276L44.2435 62.0261L44.2727 62.0235C45.4435 61.918 46.5671 61.774 47.6464 61.6087L48.9194 61.4138V60.126V51.5765V49.8577L47.2164 50.0903C44.4711 50.4651 41.7123 50.6526 38.9519 50.6522H38.9514C36.1909 50.6526 33.4322 50.4651 30.6868 50.0903L28.9839 49.8577V51.5765V60.126V61.4051L30.2469 61.6072C30.8755 61.7077 31.527 61.7965 32.184 61.8739L32.2463 61.8813L32.309 61.8834C32.404 61.8866 32.4991 61.8961 32.5943 61.912L32.6367 61.9191L32.6794 61.9238C34.6548 62.1395 36.7456 62.2609 38.9516 62.2609C40.6659 62.2609 42.3124 62.1892 43.8911 62.0565ZM69.2419 44.1568V41.2475L66.8719 42.9349C66.049 43.5209 65.1736 44.08 64.2449 44.6119C61.9325 45.9153 59.5451 46.978 57.1061 47.7915L56.0806 48.1335V49.2145V57.2851V59.5647L58.1742 58.6627C61.6381 57.1702 64.3438 55.3585 66.2087 53.5252C68.0143 51.7503 69.2419 49.7409 69.2419 47.8478V44.1568ZM11.026 42.9312L8.66129 41.2628V44.1568V47.8478C8.66129 49.7409 9.88898 51.7503 11.6947 53.5247C13.5599 55.3575 16.2658 57.1679 19.73 58.6577L21.8226 59.5577V57.2797V49.2091V48.1281L20.7972 47.7861C18.3585 46.9728 15.9716 45.9103 13.6595 44.6072C12.7316 44.0742 11.854 43.5154 11.026 42.9312ZM37.2581 72.1739H35.7581V73.6739C35.7581 75.567 36.9857 77.5764 38.7913 79.3513C40.6562 81.1846 43.3619 82.9963 46.8258 84.4888L48.9194 85.3908V83.1112V75.0405V73.9692L47.906 73.6217C46.5983 73.1732 45.3382 72.6769 44.1252 72.133L43.7774 71.9771L43.3974 72.0061C41.9316 72.1179 40.4497 72.1739 38.9516 72.1739H37.2581ZM56.0806 85.9521V87.2432L57.3574 87.4354C63.1309 88.3042 68.9659 88.3042 74.7393 87.4354L76.0161 87.2432V85.9521V77.4025V75.6838L74.3132 75.9163C71.5678 76.2912 68.8091 76.4787 66.0486 76.4783H66.0469C63.2867 76.481 60.5281 76.2952 57.7829 75.9216L56.0806 75.69V77.4079V85.9521ZM83.1774 83.1112V85.3908L85.271 84.4888C88.7349 82.9963 91.4405 81.1846 93.3055 79.3513C95.111 77.5764 96.3387 75.567 96.3387 73.6739V69.9883V67.079L93.9687 68.7664C93.146 69.3521 92.2708 69.9094 91.3424 70.4376C89.0297 71.7412 86.6421 72.804 84.2028 73.6176L83.1774 73.9596V75.0405V83.1112ZM69.2419 26.3261C69.2419 24.6992 68.3354 23.0004 66.9902 21.4687C65.6085 19.8954 63.6086 18.3162 61.056 16.9111C55.9421 14.0962 48.491 11.913 38.9516 11.913C29.4122 11.913 21.9611 14.0962 16.8472 16.9111C14.2947 18.3162 12.2947 19.8954 10.913 21.4687C9.56783 23.0004 8.66129 24.6992 8.66129 26.3261C8.66129 27.953 9.56783 29.6518 10.913 31.1835C12.2947 32.7568 14.2947 34.336 16.8472 35.7411C21.9611 38.556 29.4122 40.7391 38.9516 40.7391C48.491 40.7391 55.9421 38.556 61.056 35.7411C63.6086 34.336 65.6085 32.7568 66.9902 31.1835C68.3354 29.6518 69.2419 27.953 69.2419 26.3261Z" fill="black" stroke="#8EEBF5" stroke-width="3"/>
</svg>
