<svg width="16" height="17" viewBox="0 0 16 17" fill="none" xmlns="http://www.w3.org/2000/svg">
<path d="M12.8464 4.05345C11.9598 3.64011 10.9998 3.34011 9.99975 3.16678C9.99098 3.1665 9.98226 3.16814 9.9742 3.1716C9.96614 3.17505 9.95893 3.18024 9.95309 3.18678C9.83309 3.40678 9.69309 3.69345 9.59975 3.91345C8.53909 3.75345 7.46042 3.75345 6.39975 3.91345C6.30642 3.68678 6.16642 3.40678 6.03975 3.18678C6.03309 3.17345 6.01309 3.16678 5.99309 3.16678C4.99309 3.34011 4.03975 3.64011 3.14642 4.05345C3.13975 4.05345 3.13309 4.06011 3.12642 4.06678C1.31309 6.78011 0.813086 9.42011 1.05975 12.0334C1.05975 12.0468 1.06642 12.0601 1.07975 12.0668C2.27975 12.9468 3.43309 13.4801 4.57309 13.8334C4.59309 13.8401 4.61309 13.8334 4.61975 13.8201C4.88642 13.4534 5.12642 13.0668 5.33309 12.6601C5.34642 12.6334 5.33309 12.6068 5.30642 12.6001C4.92642 12.4534 4.56642 12.2801 4.21309 12.0801C4.18642 12.0668 4.18642 12.0268 4.20642 12.0068C4.27975 11.9534 4.35309 11.8934 4.42642 11.8401C4.43975 11.8268 4.45975 11.8268 4.47309 11.8334C6.76642 12.8801 9.23975 12.8801 11.5064 11.8334C11.5198 11.8268 11.5398 11.8268 11.5531 11.8401C11.6264 11.9001 11.6998 11.9534 11.7731 12.0134C11.7998 12.0334 11.7998 12.0734 11.7664 12.0868C11.4198 12.2934 11.0531 12.4601 10.6731 12.6068C10.6464 12.6134 10.6398 12.6468 10.6464 12.6668C10.8598 13.0734 11.0998 13.4601 11.3598 13.8268C11.3798 13.8334 11.3998 13.8401 11.4198 13.8334C12.5664 13.4801 13.7198 12.9468 14.9198 12.0668C14.9331 12.0601 14.9398 12.0468 14.9398 12.0334C15.2331 9.01344 14.4531 6.39345 12.8731 4.06678C12.8664 4.06011 12.8598 4.05345 12.8464 4.05345ZM5.67975 10.4401C4.99309 10.4401 4.41975 9.80678 4.41975 9.02678C4.41975 8.24678 4.97975 7.61345 5.67975 7.61345C6.38642 7.61345 6.94642 8.25345 6.93975 9.02678C6.93975 9.80678 6.37975 10.4401 5.67975 10.4401ZM10.3264 10.4401C9.63975 10.4401 9.06642 9.80678 9.06642 9.02678C9.06642 8.24678 9.62642 7.61345 10.3264 7.61345C11.0331 7.61345 11.5931 8.25345 11.5864 9.02678C11.5864 9.80678 11.0331 10.4401 10.3264 10.4401Z" fill="#DFDFDF"/>
</svg>
