<svg width="1284" height="168" viewBox="0 0 1284 168" fill="none" xmlns="http://www.w3.org/2000/svg">
<path d="M705.369 0L705.369 168" stroke="#858585" stroke-width="0.5"/>
<path d="M695.369 0L695.369 168" stroke="#858585" stroke-width="0.5"/>
<path d="M685.369 0L685.369 168" stroke="#858585" stroke-width="0.5"/>
<path d="M675.369 0L675.369 168" stroke="#858585" stroke-width="0.5"/>
<path d="M665.369 0L665.369 168" stroke="#858585" stroke-width="0.5"/>
<path d="M655.369 0L655.369 168" stroke="#858585" stroke-width="0.5"/>
<path d="M645.369 0L645.369 168" stroke="#858585" stroke-width="0.5"/>
<path d="M635.369 0L635.369 168" stroke="#858585" stroke-width="0.5"/>
<path d="M625.369 0L625.369 168" stroke="#858585" stroke-width="0.5"/>
<path d="M615.369 0L615.369 168" stroke="#858585" stroke-width="0.5"/>
<path d="M605.369 0L605.369 168" stroke="#858585" stroke-width="0.5"/>
<path d="M595.369 0L595.369 168" stroke="#858585" stroke-width="0.5"/>
<path d="M585.369 0L585.369 168" stroke="#858585" stroke-width="0.5"/>
<path d="M575.369 0L575.369 168" stroke="#858585" stroke-width="0.5"/>
<path d="M565.369 0L565.369 168" stroke="#858585" stroke-width="0.5"/>
<path d="M555.369 0L555.369 168" stroke="#858585" stroke-width="0.5"/>
<path d="M545.369 0L545.369 168" stroke="#858585" stroke-width="0.5"/>
<path d="M535.369 0L535.369 168" stroke="#858585" stroke-width="0.5"/>
<path d="M525.369 0L525.369 168" stroke="#858585" stroke-width="0.5"/>
<path d="M515.369 0L515.369 168" stroke="#858585" stroke-width="0.5"/>
<path d="M505.369 0L505.369 168" stroke="#858585" stroke-width="0.5"/>
<path d="M495.369 0L495.369 168" stroke="#858585" stroke-width="0.5"/>
<path d="M485.369 0L485.369 168" stroke="#858585" stroke-width="0.5"/>
<path d="M475.369 0L475.369 168" stroke="#858585" stroke-width="0.5"/>
<path d="M465.369 0L465.369 168" stroke="#858585" stroke-width="0.5"/>
<path d="M455.369 0L455.369 168" stroke="#858585" stroke-width="0.5"/>
<path d="M445.369 0L445.369 168" stroke="#858585" stroke-width="0.5"/>
<path d="M435.369 0L435.369 168" stroke="#858585" stroke-width="0.5"/>
<path d="M425.369 0L425.369 168" stroke="#858585" stroke-width="0.5"/>
<path d="M415.369 0L415.369 168" stroke="#858585" stroke-width="0.5"/>
<path d="M405.369 0L405.369 168" stroke="#858585" stroke-width="0.5"/>
<path d="M395.369 0L395.369 168" stroke="#858585" stroke-width="0.5"/>
<path d="M385.369 0L385.369 168" stroke="#858585" stroke-width="0.5"/>
<path d="M375.369 0L375.369 168" stroke="#858585" stroke-width="0.5"/>
<path d="M365.369 0L365.369 168" stroke="#858585" stroke-width="0.5"/>
<path d="M355.369 0L355.369 168" stroke="#858585" stroke-width="0.5"/>
<path d="M345.369 0L345.369 168" stroke="#858585" stroke-width="0.5"/>
<path d="M335.369 0L335.369 168" stroke="#858585" stroke-width="0.5"/>
<path d="M325.369 0L325.369 168" stroke="#858585" stroke-width="0.5"/>
<path d="M315.369 0L315.369 168" stroke="#858585" stroke-width="0.5"/>
<path d="M305.369 0L305.369 168" stroke="#858585" stroke-width="0.5"/>
<path d="M295.369 0L295.369 168" stroke="#858585" stroke-width="0.5"/>
<path d="M285.369 0L285.369 168" stroke="#858585" stroke-width="0.5"/>
<path d="M275.369 0L275.369 168" stroke="#858585" stroke-width="0.5"/>
<path d="M265.369 0L265.369 168" stroke="#858585" stroke-width="0.5"/>
<path d="M255.369 0L255.369 168" stroke="#858585" stroke-width="0.5"/>
<path d="M245.369 0L245.369 168" stroke="#858585" stroke-width="0.5"/>
<path d="M235.369 0L235.369 168" stroke="#858585" stroke-width="0.5"/>
<path d="M225.369 0L225.369 168" stroke="#858585" stroke-width="0.5"/>
<path d="M215.369 0L215.369 168" stroke="#858585" stroke-width="0.5"/>
<path d="M205.369 0L205.369 168" stroke="#858585" stroke-width="0.5"/>
<path d="M195.369 0L195.369 168" stroke="#858585" stroke-width="0.5"/>
<path d="M185.369 0L185.369 168" stroke="#858585" stroke-width="0.5"/>
<path d="M175.369 0L175.369 168" stroke="#858585" stroke-width="0.5"/>
<path d="M165.369 0L165.369 168" stroke="#858585" stroke-width="0.5"/>
<path d="M155.369 0L155.369 168" stroke="#858585" stroke-width="0.5"/>
<path d="M145.369 0L145.369 168" stroke="#858585" stroke-width="0.5"/>
<path d="M135.369 0L135.369 168" stroke="#858585" stroke-width="0.5"/>
<path d="M125.369 0L125.369 168" stroke="#858585" stroke-width="0.5"/>
<path d="M115.369 0L115.369 168" stroke="#858585" stroke-width="0.5"/>
<path d="M105.369 0L105.369 168" stroke="#858585" stroke-width="0.5"/>
<path d="M95.3691 0L95.3691 168" stroke="#858585" stroke-width="0.5"/>
<path d="M85.3691 0L85.3691 168" stroke="#858585" stroke-width="0.5"/>
<path d="M75.3691 0L75.3691 168" stroke="#858585" stroke-width="0.5"/>
<path d="M65.3691 0L65.3691 168" stroke="#858585" stroke-width="0.5"/>
<path d="M55.3691 0L55.3691 168" stroke="#858585" stroke-width="0.5"/>
<path d="M45.3691 0L45.3691 168" stroke="#858585" stroke-width="0.5"/>
<path d="M35.3691 0L35.3691 168" stroke="#858585" stroke-width="0.5"/>
<path d="M25.3691 0L25.3691 168" stroke="#858585" stroke-width="0.5"/>
<path d="M15 0.5L15.3693 168" stroke="#858585" stroke-width="0.5"/>
<path d="M5 6.5L4.99984 160.5" stroke="#858585" stroke-width="0.5"/>
<path d="M715.369 0L715.369 168" stroke="#858585" stroke-width="0.5"/>
<path d="M725.369 0L725.369 168" stroke="#858585" stroke-width="0.5"/>
<path d="M735.369 0L735.369 168" stroke="#858585" stroke-width="0.5"/>
<path d="M745.369 0L745.369 168" stroke="#858585" stroke-width="0.5"/>
<path d="M755.369 0L755.369 168" stroke="#858585" stroke-width="0.5"/>
<path d="M765.369 0L765.369 168" stroke="#858585" stroke-width="0.5"/>
<path d="M775.369 0L775.369 168" stroke="#858585" stroke-width="0.5"/>
<path d="M785.369 0L785.369 168" stroke="#858585" stroke-width="0.5"/>
<path d="M795.369 0L795.369 168" stroke="#858585" stroke-width="0.5"/>
<path d="M805.369 0L805.369 168" stroke="#858585" stroke-width="0.5"/>
<path d="M815.369 0L815.369 168" stroke="#858585" stroke-width="0.5"/>
<path d="M825.369 0L825.369 168" stroke="#858585" stroke-width="0.5"/>
<path d="M835.369 0L835.369 168" stroke="#858585" stroke-width="0.5"/>
<path d="M845.369 0L845.369 168" stroke="#858585" stroke-width="0.5"/>
<path d="M855.369 0L855.369 168" stroke="#858585" stroke-width="0.5"/>
<path d="M865.369 0L865.369 168" stroke="#858585" stroke-width="0.5"/>
<path d="M875.369 0L875.369 168" stroke="#858585" stroke-width="0.5"/>
<path d="M885.369 0L885.369 168" stroke="#858585" stroke-width="0.5"/>
<path d="M895.369 0L895.369 168" stroke="#858585" stroke-width="0.5"/>
<path d="M905.369 0L905.369 168" stroke="#858585" stroke-width="0.5"/>
<path d="M915.369 0L915.369 168" stroke="#858585" stroke-width="0.5"/>
<path d="M3 9L1279 8.99989" stroke="#858585" stroke-width="0.5"/>
<path d="M0 18L1284 17.9999" stroke="#858585" stroke-width="0.5"/>
<path d="M0 27L1284 26.9999" stroke="#858585" stroke-width="0.5"/>
<path d="M0 36L1284 35.9999" stroke="#858585" stroke-width="0.5"/>
<path d="M0 45L1284 44.9999" stroke="#858585" stroke-width="0.5"/>
<path d="M0 54L1284 53.9999" stroke="#858585" stroke-width="0.5"/>
<path d="M0 63L1284 62.9999" stroke="#858585" stroke-width="0.5"/>
<path d="M0 72L1284 71.9999" stroke="#858585" stroke-width="0.5"/>
<path d="M0 81L1284 80.9999" stroke="#858585" stroke-width="0.5"/>
<path d="M0 90L1284 89.9999" stroke="#858585" stroke-width="0.5"/>
<path d="M0 99L1284 98.9999" stroke="#858585" stroke-width="0.5"/>
<path d="M0 108L1284 108" stroke="#858585" stroke-width="0.5"/>
<path d="M0 117L1284 117" stroke="#858585" stroke-width="0.5"/>
<path d="M0 126L1284 126" stroke="#858585" stroke-width="0.5"/>
<path d="M0 135L1284 135" stroke="#858585" stroke-width="0.5"/>
<path d="M0 144L1284 144" stroke="#858585" stroke-width="0.5"/>
<path d="M1 153L1283 153" stroke="#858585" stroke-width="0.5"/>
<path d="M7 162L1274 162" stroke="#858585" stroke-width="0.5"/>
<path d="M925.369 0L925.369 168" stroke="#858585" stroke-width="0.5"/>
<path d="M935.369 0L935.369 168" stroke="#858585" stroke-width="0.5"/>
<path d="M945.369 0L945.369 168" stroke="#858585" stroke-width="0.5"/>
<path d="M955.369 0L955.369 168" stroke="#858585" stroke-width="0.5"/>
<path d="M965.369 0L965.369 168" stroke="#858585" stroke-width="0.5"/>
<path d="M975.369 0L975.369 168" stroke="#858585" stroke-width="0.5"/>
<path d="M985.369 0L985.369 168" stroke="#858585" stroke-width="0.5"/>
<path d="M995.369 0L995.369 168" stroke="#858585" stroke-width="0.5"/>
<path d="M1005.37 0L1005.37 168" stroke="#858585" stroke-width="0.5"/>
<path d="M1015.37 0L1015.37 168" stroke="#858585" stroke-width="0.5"/>
<path d="M1025.37 0L1025.37 168" stroke="#858585" stroke-width="0.5"/>
<path d="M1035.37 0L1035.37 168" stroke="#858585" stroke-width="0.5"/>
<path d="M1045.37 0L1045.37 168" stroke="#858585" stroke-width="0.5"/>
<path d="M1055.37 0L1055.37 168" stroke="#858585" stroke-width="0.5"/>
<path d="M1065.37 0L1065.37 168" stroke="#858585" stroke-width="0.5"/>
<path d="M1075.37 0L1075.37 168" stroke="#858585" stroke-width="0.5"/>
<path d="M1085.37 0L1085.37 168" stroke="#858585" stroke-width="0.5"/>
<path d="M1095.37 0L1095.37 168" stroke="#858585" stroke-width="0.5"/>
<path d="M1105.37 0L1105.37 168" stroke="#858585" stroke-width="0.5"/>
<path d="M1115.37 0L1115.37 168" stroke="#858585" stroke-width="0.5"/>
<path d="M1125.37 0L1125.37 168" stroke="#858585" stroke-width="0.5"/>
<path d="M1135.37 0L1135.37 168" stroke="#858585" stroke-width="0.5"/>
<path d="M1145.37 0L1145.37 168" stroke="#858585" stroke-width="0.5"/>
<path d="M1155.37 0L1155.37 168" stroke="#858585" stroke-width="0.5"/>
<path d="M1165.37 0L1165.37 168" stroke="#858585" stroke-width="0.5"/>
<path d="M1175.37 0L1175.37 168" stroke="#858585" stroke-width="0.5"/>
<path d="M1185.37 0L1185.37 168" stroke="#858585" stroke-width="0.5"/>
<path d="M1195.37 0L1195.37 168" stroke="#858585" stroke-width="0.5"/>
<path d="M1205.37 0L1205.37 168" stroke="#858585" stroke-width="0.5"/>
<path d="M1215.37 0L1215.37 168" stroke="#858585" stroke-width="0.5"/>
<path d="M1225.37 0L1225.37 168" stroke="#858585" stroke-width="0.5"/>
<path d="M1235.37 0L1235.37 168" stroke="#858585" stroke-width="0.5"/>
<path d="M1245.37 0L1245.37 168" stroke="#858585" stroke-width="0.5"/>
<path d="M1255.37 0L1255.37 168" stroke="#858585" stroke-width="0.5"/>
<path d="M1265.37 0L1265.37 168" stroke="#858585" stroke-width="0.5"/>
<path d="M1275.37 3L1275.37 165" stroke="#858585" stroke-width="0.5"/>
</svg>
