<svg width="57" height="50" viewBox="0 0 57 50" fill="none" xmlns="http://www.w3.org/2000/svg">
<mask id="path-1-inside-1_345_347" fill="white">
<path d="M56.0139 19.5C56.0758 19.2787 56.1489 19.0631 56.2014 18.8381C56.2127 18.7931 56.2164 18.7481 56.2277 18.7031C56.7633 16.541 56.7612 14.2806 56.2216 12.1194C55.682 9.95826 54.6212 7.96218 53.1321 6.30562C51.7589 4.45918 49.9698 2.96247 47.91 1.93693C45.8501 0.911384 43.5774 0.385902 41.2764 0.40312H41.1789C40.9914 0.40312 40.7814 0.416245 40.5827 0.42187H40.3558C36.3931 0.640506 32.4543 1.17597 28.5771 2.02312L20.1827 0.682495H20.1171C16.1189 -0.00825423 12.0045 0.651417 8.42269 2.5575C6.4048 3.77363 4.6719 5.40933 3.34144 7.35375L3.26457 7.45687L3.21769 7.5225C1.45754 10.1336 0.500418 13.2028 0.464432 16.3516C0.428447 19.5003 1.31518 22.5906 3.01519 25.2412C2.97957 25.305 2.95894 25.3762 2.92519 25.4419C2.76268 25.7669 2.62419 26.1035 2.51082 26.4487C2.45082 26.6362 2.40582 26.835 2.36269 27.03C2.32894 27.1894 2.29519 27.3469 2.27269 27.5062C2.24955 27.7049 2.23579 27.9045 2.23144 28.1044C2.23144 28.2656 2.21269 28.4231 2.22019 28.5825C2.23332 28.7925 2.25769 29.0006 2.29144 29.2087C2.31394 29.3569 2.32519 29.505 2.35894 29.6512C2.41519 29.8819 2.49019 30.1087 2.57644 30.33C2.61957 30.4481 2.64769 30.57 2.70019 30.6862C2.85394 31.0294 3.04144 31.3537 3.26269 31.6575C4.11102 32.8722 5.36275 33.7465 6.79519 34.125C6.74174 34.9245 6.87483 35.7256 7.18395 36.4648C7.49307 37.2041 7.96978 37.8615 8.57644 38.385C9.65089 39.3264 10.9687 39.9463 12.3789 40.1737C12.6696 41.1169 13.1796 41.9775 13.8658 42.6862C14.8021 43.7014 16.0674 44.3523 17.4377 44.5237C17.7639 45.6356 18.3827 46.6406 19.2302 47.43C20.2746 48.4575 21.6733 49.0425 23.1377 49.0612C24.2147 49.0562 25.2725 48.7761 26.2108 48.2475C27.6058 49.0462 29.2408 49.3162 30.8196 49.0087C31.6482 48.8571 32.4334 48.525 33.1193 48.0361C33.8053 47.5471 34.3753 46.9132 34.7889 46.1794C34.8283 46.1175 34.8508 46.0631 34.8864 46.0012C36.4802 46.3275 38.1396 46.0406 39.5327 45.1987C40.7578 44.5071 41.6905 43.3945 42.1577 42.0675C43.8339 42.09 45.4577 41.4862 46.7083 40.3706C47.3936 39.7716 47.9257 39.0175 48.2604 38.1711C48.595 37.3248 48.7224 36.4106 48.6321 35.505C48.6321 35.4525 48.6189 35.4112 48.6152 35.3606C49.5938 35.0674 50.474 34.5132 51.1614 33.7575C52.0502 32.8203 52.6223 31.6279 52.7973 30.3482C52.9722 29.0686 52.741 27.7663 52.1364 26.625C53.8221 24.6773 55.0976 22.4096 55.8864 19.9575C55.9314 19.8131 55.9689 19.6556 56.0139 19.5ZM52.8039 16.3125C52.7104 17.2552 52.5033 18.1832 52.1871 19.0762L52.1271 19.2637C51.504 20.9318 50.6053 22.4834 49.4683 23.8537C43.5864 18.72 35.0308 11.2275 34.3277 10.5562C33.5155 9.77889 32.4369 9.34152 31.3127 9.33375C30.964 9.33074 30.617 9.38068 30.2833 9.48187C29.0946 9.85687 26.1733 10.7944 23.6233 11.7412C22.6483 12.1031 21.5346 11.1787 21.1952 10.3912C20.9702 9.91875 20.9327 9.37875 21.0864 8.88C21.3921 8.32687 21.9058 7.91625 22.5133 7.74C28.2812 5.71241 34.3074 4.51296 40.4121 4.1775H40.6389C40.8471 4.1775 41.0533 4.1625 41.2446 4.15875C42.645 4.13571 44.0353 4.39923 45.3302 4.93312C47.2504 5.80839 48.9363 7.12551 50.2502 8.77687C51.423 10.1042 52.2431 11.7052 52.6352 13.4325L52.6521 13.5187C52.7423 13.9803 52.7993 14.4478 52.8227 14.9175C52.8283 15.0694 52.8377 15.2606 52.8377 15.4294C52.8377 15.7012 52.8377 15.9712 52.8058 16.2394L52.8039 16.3125ZM6.01332 28.7981C6.00019 28.7175 6.00019 28.6294 6.00019 28.545C5.97951 28.3643 5.97951 28.1819 6.00019 28.0012C6.02088 27.8948 6.04781 27.7896 6.08082 27.6862C6.11832 27.5194 6.17457 27.3562 6.24207 27.2006C6.30394 27.0881 6.37519 26.9794 6.45394 26.8781C6.56554 26.6952 6.70112 26.5281 6.85706 26.3812L6.86831 26.3719L10.3952 23.3812C10.6295 23.2008 10.8971 23.0683 11.1827 22.9914C11.4683 22.9144 11.7662 22.8946 12.0595 22.9329C12.3527 22.9712 12.6356 23.0669 12.8918 23.2147C13.148 23.3624 13.3726 23.5592 13.5527 23.7937C13.6838 23.9857 13.769 24.2054 13.8015 24.4356C13.834 24.6658 13.813 24.9004 13.7402 25.1212L8.20894 30.51C7.82711 30.5168 7.45003 30.4246 7.1145 30.2422C6.77898 30.0598 6.49647 29.7935 6.29457 29.4694C6.15523 29.2676 6.05945 29.039 6.01332 28.7981ZM10.7308 33.2887L16.8002 27.375L16.7721 27.3469C17.1136 27.1768 17.4993 27.1165 17.8764 27.1744C18.3583 27.3056 18.7933 27.5756 19.1252 27.9506C19.4552 28.2319 19.6764 28.6181 19.7514 29.0456C19.7793 29.4787 19.6844 29.9109 19.4777 30.2925C19.4586 30.3447 19.4423 30.3979 19.4289 30.4519L13.2958 36.4275C12.8655 36.4463 12.4361 36.3723 12.0369 36.2105C11.6377 36.0487 11.278 35.803 10.9821 35.49C10.7386 35.1833 10.5859 34.8144 10.5415 34.4253C10.4971 34.0362 10.5627 33.6425 10.7308 33.2887ZM15.9527 39.0731L22.2902 32.9062C22.6933 32.9869 23.0627 33.1931 23.3439 33.495C23.7326 33.8353 24.0031 34.2903 24.1164 34.7944C24.146 35.0112 24.1365 35.2315 24.0883 35.445L18.6077 40.7794C18.242 40.8473 17.8651 40.8209 17.5125 40.7028C17.1598 40.5847 16.8431 40.3788 16.5921 40.1044C16.2992 39.8169 16.0799 39.4632 15.9527 39.0731ZM21.8346 44.7206C21.4954 44.4211 21.2277 44.0496 21.0508 43.6331L26.2277 38.595C26.5971 38.7169 26.9346 38.9175 27.2177 39.1819C27.4821 39.393 27.6816 39.6744 27.7933 39.9937C27.8569 40.2302 27.8569 40.4792 27.7933 40.7156C27.5591 41.472 27.1688 42.1708 26.6477 42.7669L25.2302 44.4169H25.2414C25.1946 44.4469 25.1421 44.46 25.0989 44.4937C24.5703 44.9762 23.89 45.2594 23.1752 45.2944C22.6705 45.2859 22.1892 45.0799 21.8346 44.7206ZM30.2233 45.2962C29.9458 45.3394 29.6664 45.3525 29.3871 45.3337L29.5258 45.1725L29.5708 45.1181L29.5727 45.12C30.141 44.4176 30.622 43.6488 31.0052 42.8306L31.8339 43.7081C31.7661 43.8848 31.6846 44.0559 31.5902 44.22C31.4565 44.4896 31.2645 44.7261 31.0281 44.9122C30.7917 45.0984 30.5168 45.2296 30.2233 45.2962ZM42.2233 38.3119L38.8877 34.6162C38.6013 34.2811 38.2058 34.0578 37.7709 33.9855C37.336 33.9132 36.8896 33.9966 36.5102 34.221C36.1307 34.4455 35.8426 34.7965 35.6965 35.2125C35.5504 35.6284 35.5557 36.0826 35.7114 36.495C35.7982 36.7288 35.9308 36.943 36.1014 37.125L38.7939 40.125C38.7752 40.3162 38.7358 40.5056 38.6758 40.6875C38.5197 41.2186 38.1634 41.6684 37.6821 41.9419C37.0959 42.3264 36.3845 42.4713 35.6946 42.3469L33.4446 39.9581C33.2017 39.7026 32.8912 39.5214 32.5493 39.4354C32.2074 39.3495 31.8482 39.3623 31.5133 39.4725C31.4843 39.2904 31.4448 39.1101 31.3952 38.9325C31.0856 37.9527 30.5098 37.0783 29.7321 36.4069C29.1872 35.9097 28.5629 35.5073 27.8852 35.2162C27.8982 34.8674 27.8763 34.5182 27.8196 34.1737C27.5778 32.8969 26.9363 31.7301 25.9877 30.8419C25.2982 30.1437 24.4456 29.6282 23.5071 29.3419C23.5164 29.0906 23.5071 28.8412 23.4789 28.5919C23.3037 27.329 22.7 26.1647 21.7689 25.2937C20.9211 24.4062 19.8319 23.7863 18.6358 23.5106C18.2289 23.4321 17.814 23.4037 17.4002 23.4262C17.253 22.7298 16.9555 22.0738 16.5283 21.5044C16.047 20.8793 15.447 20.3552 14.7629 19.9622C14.0787 19.5693 13.3238 19.3151 12.5413 19.2143C11.7588 19.1134 10.9641 19.1679 10.2027 19.3746C9.44124 19.5813 8.72806 19.9361 8.10394 20.4187L8.03832 20.4712L5.72269 22.4212C4.6369 20.444 4.11738 18.2056 4.22125 15.9522C4.32512 13.6988 5.04836 11.5177 6.31144 9.64875L6.35081 9.5925C7.37745 8.06177 8.72406 6.77208 10.2977 5.8125C13.1682 4.3175 16.4552 3.82201 19.6389 4.40437L20.5089 4.54312C19.2236 5.12231 18.1969 6.15503 17.6252 7.44375C17.3488 8.15081 17.2174 8.9062 17.2387 9.66506C17.2599 10.4239 17.4334 11.1708 17.7489 11.8612C18.3106 13.2197 19.3581 14.3203 20.6871 14.9485C22.0162 15.5766 23.5315 15.6872 24.9377 15.2587C27.4127 14.3419 30.2514 13.4212 31.3127 13.0856C31.3971 13.0828 31.481 13.0991 31.5583 13.1332C31.6355 13.1673 31.7041 13.2183 31.7589 13.2825C32.6758 14.145 43.7439 23.8331 48.3677 27.8625L48.7427 28.1831C49.0339 28.6547 49.1583 29.2104 49.0961 29.7612C49.0339 30.3119 48.7886 30.8259 48.3996 31.2206C48.1324 31.5086 47.7815 31.7053 47.3964 31.7831L44.1471 28.4887C43.7934 28.1521 43.3228 27.966 42.8346 27.9698C42.3463 27.9736 41.8787 28.1669 41.5303 28.509C41.1819 28.8511 40.98 29.3151 40.9673 29.8032C40.9545 30.2913 41.132 30.7652 41.4621 31.125L44.5671 34.2712C44.5802 34.3275 44.5952 34.3837 44.6121 34.4381L44.6346 34.4962C44.7753 34.8965 44.8605 35.3141 44.8877 35.7375C44.9398 36.059 44.9121 36.3883 44.8072 36.6966C44.7022 37.0049 44.5232 37.2827 44.2858 37.5056C43.7252 38.0306 42.9846 38.3194 42.2177 38.3119H42.2233Z"/>
</mask>
<path d="M56.0139 19.5C56.0758 19.2787 56.1489 19.0631 56.2014 18.8381C56.2127 18.7931 56.2164 18.7481 56.2277 18.7031C56.7633 16.541 56.7612 14.2806 56.2216 12.1194C55.682 9.95826 54.6212 7.96218 53.1321 6.30562C51.7589 4.45918 49.9698 2.96247 47.91 1.93693C45.8501 0.911384 43.5774 0.385902 41.2764 0.40312H41.1789C40.9914 0.40312 40.7814 0.416245 40.5827 0.42187H40.3558C36.3931 0.640506 32.4543 1.17597 28.5771 2.02312L20.1827 0.682495H20.1171C16.1189 -0.00825423 12.0045 0.651417 8.42269 2.5575C6.4048 3.77363 4.6719 5.40933 3.34144 7.35375L3.26457 7.45687L3.21769 7.5225C1.45754 10.1336 0.500418 13.2028 0.464432 16.3516C0.428447 19.5003 1.31518 22.5906 3.01519 25.2412C2.97957 25.305 2.95894 25.3762 2.92519 25.4419C2.76268 25.7669 2.62419 26.1035 2.51082 26.4487C2.45082 26.6362 2.40582 26.835 2.36269 27.03C2.32894 27.1894 2.29519 27.3469 2.27269 27.5062C2.24955 27.7049 2.23579 27.9045 2.23144 28.1044C2.23144 28.2656 2.21269 28.4231 2.22019 28.5825C2.23332 28.7925 2.25769 29.0006 2.29144 29.2087C2.31394 29.3569 2.32519 29.505 2.35894 29.6512C2.41519 29.8819 2.49019 30.1087 2.57644 30.33C2.61957 30.4481 2.64769 30.57 2.70019 30.6862C2.85394 31.0294 3.04144 31.3537 3.26269 31.6575C4.11102 32.8722 5.36275 33.7465 6.79519 34.125C6.74174 34.9245 6.87483 35.7256 7.18395 36.4648C7.49307 37.2041 7.96978 37.8615 8.57644 38.385C9.65089 39.3264 10.9687 39.9463 12.3789 40.1737C12.6696 41.1169 13.1796 41.9775 13.8658 42.6862C14.8021 43.7014 16.0674 44.3523 17.4377 44.5237C17.7639 45.6356 18.3827 46.6406 19.2302 47.43C20.2746 48.4575 21.6733 49.0425 23.1377 49.0612C24.2147 49.0562 25.2725 48.7761 26.2108 48.2475C27.6058 49.0462 29.2408 49.3162 30.8196 49.0087C31.6482 48.8571 32.4334 48.525 33.1193 48.0361C33.8053 47.5471 34.3753 46.9132 34.7889 46.1794C34.8283 46.1175 34.8508 46.0631 34.8864 46.0012C36.4802 46.3275 38.1396 46.0406 39.5327 45.1987C40.7578 44.5071 41.6905 43.3945 42.1577 42.0675C43.8339 42.09 45.4577 41.4862 46.7083 40.3706C47.3936 39.7716 47.9257 39.0175 48.2604 38.1711C48.595 37.3248 48.7224 36.4106 48.6321 35.505C48.6321 35.4525 48.6189 35.4112 48.6152 35.3606C49.5938 35.0674 50.474 34.5132 51.1614 33.7575C52.0502 32.8203 52.6223 31.6279 52.7973 30.3482C52.9722 29.0686 52.741 27.7663 52.1364 26.625C53.8221 24.6773 55.0976 22.4096 55.8864 19.9575C55.9314 19.8131 55.9689 19.6556 56.0139 19.5ZM52.8039 16.3125C52.7104 17.2552 52.5033 18.1832 52.1871 19.0762L52.1271 19.2637C51.504 20.9318 50.6053 22.4834 49.4683 23.8537C43.5864 18.72 35.0308 11.2275 34.3277 10.5562C33.5155 9.77889 32.4369 9.34152 31.3127 9.33375C30.964 9.33074 30.617 9.38068 30.2833 9.48187C29.0946 9.85687 26.1733 10.7944 23.6233 11.7412C22.6483 12.1031 21.5346 11.1787 21.1952 10.3912C20.9702 9.91875 20.9327 9.37875 21.0864 8.88C21.3921 8.32687 21.9058 7.91625 22.5133 7.74C28.2812 5.71241 34.3074 4.51296 40.4121 4.1775H40.6389C40.8471 4.1775 41.0533 4.1625 41.2446 4.15875C42.645 4.13571 44.0353 4.39923 45.3302 4.93312C47.2504 5.80839 48.9363 7.12551 50.2502 8.77687C51.423 10.1042 52.2431 11.7052 52.6352 13.4325L52.6521 13.5187C52.7423 13.9803 52.7993 14.4478 52.8227 14.9175C52.8283 15.0694 52.8377 15.2606 52.8377 15.4294C52.8377 15.7012 52.8377 15.9712 52.8058 16.2394L52.8039 16.3125ZM6.01332 28.7981C6.00019 28.7175 6.00019 28.6294 6.00019 28.545C5.97951 28.3643 5.97951 28.1819 6.00019 28.0012C6.02088 27.8948 6.04781 27.7896 6.08082 27.6862C6.11832 27.5194 6.17457 27.3562 6.24207 27.2006C6.30394 27.0881 6.37519 26.9794 6.45394 26.8781C6.56554 26.6952 6.70112 26.5281 6.85706 26.3812L6.86831 26.3719L10.3952 23.3812C10.6295 23.2008 10.8971 23.0683 11.1827 22.9914C11.4683 22.9144 11.7662 22.8946 12.0595 22.9329C12.3527 22.9712 12.6356 23.0669 12.8918 23.2147C13.148 23.3624 13.3726 23.5592 13.5527 23.7937C13.6838 23.9857 13.769 24.2054 13.8015 24.4356C13.834 24.6658 13.813 24.9004 13.7402 25.1212L8.20894 30.51C7.82711 30.5168 7.45003 30.4246 7.1145 30.2422C6.77898 30.0598 6.49647 29.7935 6.29457 29.4694C6.15523 29.2676 6.05945 29.039 6.01332 28.7981ZM10.7308 33.2887L16.8002 27.375L16.7721 27.3469C17.1136 27.1768 17.4993 27.1165 17.8764 27.1744C18.3583 27.3056 18.7933 27.5756 19.1252 27.9506C19.4552 28.2319 19.6764 28.6181 19.7514 29.0456C19.7793 29.4787 19.6844 29.9109 19.4777 30.2925C19.4586 30.3447 19.4423 30.3979 19.4289 30.4519L13.2958 36.4275C12.8655 36.4463 12.4361 36.3723 12.0369 36.2105C11.6377 36.0487 11.278 35.803 10.9821 35.49C10.7386 35.1833 10.5859 34.8144 10.5415 34.4253C10.4971 34.0362 10.5627 33.6425 10.7308 33.2887ZM15.9527 39.0731L22.2902 32.9062C22.6933 32.9869 23.0627 33.1931 23.3439 33.495C23.7326 33.8353 24.0031 34.2903 24.1164 34.7944C24.146 35.0112 24.1365 35.2315 24.0883 35.445L18.6077 40.7794C18.242 40.8473 17.8651 40.8209 17.5125 40.7028C17.1598 40.5847 16.8431 40.3788 16.5921 40.1044C16.2992 39.8169 16.0799 39.4632 15.9527 39.0731ZM21.8346 44.7206C21.4954 44.4211 21.2277 44.0496 21.0508 43.6331L26.2277 38.595C26.5971 38.7169 26.9346 38.9175 27.2177 39.1819C27.4821 39.393 27.6816 39.6744 27.7933 39.9937C27.8569 40.2302 27.8569 40.4792 27.7933 40.7156C27.5591 41.472 27.1688 42.1708 26.6477 42.7669L25.2302 44.4169H25.2414C25.1946 44.4469 25.1421 44.46 25.0989 44.4937C24.5703 44.9762 23.89 45.2594 23.1752 45.2944C22.6705 45.2859 22.1892 45.0799 21.8346 44.7206ZM30.2233 45.2962C29.9458 45.3394 29.6664 45.3525 29.3871 45.3337L29.5258 45.1725L29.5708 45.1181L29.5727 45.12C30.141 44.4176 30.622 43.6488 31.0052 42.8306L31.8339 43.7081C31.7661 43.8848 31.6846 44.0559 31.5902 44.22C31.4565 44.4896 31.2645 44.7261 31.0281 44.9122C30.7917 45.0984 30.5168 45.2296 30.2233 45.2962ZM42.2233 38.3119L38.8877 34.6162C38.6013 34.2811 38.2058 34.0578 37.7709 33.9855C37.336 33.9132 36.8896 33.9966 36.5102 34.221C36.1307 34.4455 35.8426 34.7965 35.6965 35.2125C35.5504 35.6284 35.5557 36.0826 35.7114 36.495C35.7982 36.7288 35.9308 36.943 36.1014 37.125L38.7939 40.125C38.7752 40.3162 38.7358 40.5056 38.6758 40.6875C38.5197 41.2186 38.1634 41.6684 37.6821 41.9419C37.0959 42.3264 36.3845 42.4713 35.6946 42.3469L33.4446 39.9581C33.2017 39.7026 32.8912 39.5214 32.5493 39.4354C32.2074 39.3495 31.8482 39.3623 31.5133 39.4725C31.4843 39.2904 31.4448 39.1101 31.3952 38.9325C31.0856 37.9527 30.5098 37.0783 29.7321 36.4069C29.1872 35.9097 28.5629 35.5073 27.8852 35.2162C27.8982 34.8674 27.8763 34.5182 27.8196 34.1737C27.5778 32.8969 26.9363 31.7301 25.9877 30.8419C25.2982 30.1437 24.4456 29.6282 23.5071 29.3419C23.5164 29.0906 23.5071 28.8412 23.4789 28.5919C23.3037 27.329 22.7 26.1647 21.7689 25.2937C20.9211 24.4062 19.8319 23.7863 18.6358 23.5106C18.2289 23.4321 17.814 23.4037 17.4002 23.4262C17.253 22.7298 16.9555 22.0738 16.5283 21.5044C16.047 20.8793 15.447 20.3552 14.7629 19.9622C14.0787 19.5693 13.3238 19.3151 12.5413 19.2143C11.7588 19.1134 10.9641 19.1679 10.2027 19.3746C9.44124 19.5813 8.72806 19.9361 8.10394 20.4187L8.03832 20.4712L5.72269 22.4212C4.6369 20.444 4.11738 18.2056 4.22125 15.9522C4.32512 13.6988 5.04836 11.5177 6.31144 9.64875L6.35081 9.5925C7.37745 8.06177 8.72406 6.77208 10.2977 5.8125C13.1682 4.3175 16.4552 3.82201 19.6389 4.40437L20.5089 4.54312C19.2236 5.12231 18.1969 6.15503 17.6252 7.44375C17.3488 8.15081 17.2174 8.9062 17.2387 9.66506C17.2599 10.4239 17.4334 11.1708 17.7489 11.8612C18.3106 13.2197 19.3581 14.3203 20.6871 14.9485C22.0162 15.5766 23.5315 15.6872 24.9377 15.2587C27.4127 14.3419 30.2514 13.4212 31.3127 13.0856C31.3971 13.0828 31.481 13.0991 31.5583 13.1332C31.6355 13.1673 31.7041 13.2183 31.7589 13.2825C32.6758 14.145 43.7439 23.8331 48.3677 27.8625L48.7427 28.1831C49.0339 28.6547 49.1583 29.2104 49.0961 29.7612C49.0339 30.3119 48.7886 30.8259 48.3996 31.2206C48.1324 31.5086 47.7815 31.7053 47.3964 31.7831L44.1471 28.4887C43.7934 28.1521 43.3228 27.966 42.8346 27.9698C42.3463 27.9736 41.8787 28.1669 41.5303 28.509C41.1819 28.8511 40.98 29.3151 40.9673 29.8032C40.9545 30.2913 41.132 30.7652 41.4621 31.125L44.5671 34.2712C44.5802 34.3275 44.5952 34.3837 44.6121 34.4381L44.6346 34.4962C44.7753 34.8965 44.8605 35.3141 44.8877 35.7375C44.9398 36.059 44.9121 36.3883 44.8072 36.6966C44.7022 37.0049 44.5232 37.2827 44.2858 37.5056C43.7252 38.0306 42.9846 38.3194 42.2177 38.3119H42.2233Z" fill="black" stroke="#F1FF85" stroke-width="2" mask="url(#path-1-inside-1_345_347)"/>
</svg>
