<svg width="14" height="15" viewBox="0 0 14 15" fill="none" xmlns="http://www.w3.org/2000/svg">
<path d="M4.19967 0.833252H9.79967C11.933 0.833252 13.6663 2.56659 13.6663 4.69992V10.2999C13.6663 11.3254 13.259 12.3089 12.5338 13.0341C11.8087 13.7592 10.8252 14.1666 9.79967 14.1666H4.19967C2.06634 14.1666 0.333008 12.4333 0.333008 10.2999V4.69992C0.333008 3.67442 0.740388 2.69091 1.46553 1.96577C2.19067 1.24063 3.17417 0.833252 4.19967 0.833252ZM4.06634 2.16659C3.42982 2.16659 2.81937 2.41944 2.36929 2.86953C1.9192 3.31962 1.66634 3.93007 1.66634 4.56659V10.4333C1.66634 11.7599 2.73967 12.8333 4.06634 12.8333H9.93301C10.5695 12.8333 11.18 12.5804 11.6301 12.1303C12.0802 11.6802 12.333 11.0698 12.333 10.4333V4.56659C12.333 3.23992 11.2597 2.16659 9.93301 2.16659H4.06634ZM10.4997 3.16659C10.7207 3.16659 10.9327 3.25438 11.0889 3.41066C11.2452 3.56694 11.333 3.7789 11.333 3.99992C11.333 4.22093 11.2452 4.43289 11.0889 4.58917C10.9327 4.74545 10.7207 4.83325 10.4997 4.83325C10.2787 4.83325 10.0667 4.74545 9.91042 4.58917C9.75414 4.43289 9.66634 4.22093 9.66634 3.99992C9.66634 3.7789 9.75414 3.56694 9.91042 3.41066C10.0667 3.25438 10.2787 3.16659 10.4997 3.16659ZM6.99967 4.16659C7.88373 4.16659 8.73158 4.51777 9.3567 5.1429C9.98182 5.76802 10.333 6.61586 10.333 7.49992C10.333 8.38397 9.98182 9.23182 9.3567 9.85694C8.73158 10.4821 7.88373 10.8333 6.99967 10.8333C6.11562 10.8333 5.26777 10.4821 4.64265 9.85694C4.01753 9.23182 3.66634 8.38397 3.66634 7.49992C3.66634 6.61586 4.01753 5.76802 4.64265 5.1429C5.26777 4.51777 6.11562 4.16659 6.99967 4.16659ZM6.99967 5.49992C6.46924 5.49992 5.96053 5.71063 5.58546 6.0857C5.21039 6.46078 4.99967 6.96949 4.99967 7.49992C4.99967 8.03035 5.21039 8.53906 5.58546 8.91413C5.96053 9.28921 6.46924 9.49992 6.99967 9.49992C7.53011 9.49992 8.03882 9.28921 8.41389 8.91413C8.78896 8.53906 8.99967 8.03035 8.99967 7.49992C8.99967 6.96949 8.78896 6.46078 8.41389 6.0857C8.03882 5.71063 7.53011 5.49992 6.99967 5.49992Z" fill="#DFDFDF"/>
</svg>
