<svg width="16" height="17" viewBox="0 0 16 17" fill="none" xmlns="http://www.w3.org/2000/svg">
<path d="M12.2233 12.726H10.4467V9.94133C10.4467 9.27733 10.4333 8.42267 9.52 8.42267C8.594 8.42267 8.45267 9.14533 8.45267 9.89267V12.726H6.67533V7H8.382V7.78H8.40533C8.644 7.33067 9.224 6.85533 10.0907 6.85533C11.8907 6.85533 12.224 8.04067 12.224 9.58267V12.726H12.2233ZM4.66867 6.21667C4.53304 6.21684 4.39871 6.19025 4.27338 6.1384C4.14804 6.08656 4.03418 6.01049 3.9383 5.91456C3.84243 5.81862 3.76644 5.70471 3.71467 5.57934C3.66291 5.45398 3.6364 5.31963 3.63667 5.184C3.6368 4.97989 3.69745 4.7804 3.81096 4.61076C3.92447 4.44113 4.08573 4.30896 4.27435 4.23097C4.46298 4.15298 4.67049 4.13268 4.87065 4.17263C5.07082 4.21258 5.25464 4.31098 5.39887 4.4554C5.54311 4.59983 5.64128 4.78377 5.68097 4.98399C5.72066 5.1842 5.70009 5.39169 5.62185 5.58021C5.54362 5.76873 5.41125 5.92983 5.24146 6.04311C5.07168 6.1564 4.87278 6.2168 4.66867 6.21667ZM5.55933 12.726H3.77733V7H5.56V12.726H5.55933ZM13.1133 2.5H2.886C2.39533 2.5 2 2.88667 2 3.36467V13.6353C2 14.1133 2.396 14.5 2.88533 14.5H13.1107C13.6 14.5 14 14.1133 14 13.6353V3.36467C14 2.88667 13.6 2.5 13.1107 2.5H13.1133Z" fill="#DFDFDF"/>
</svg>
