<svg width="59" height="48" viewBox="0 0 59 48" fill="none" xmlns="http://www.w3.org/2000/svg">
<path d="M48.6875 6.0625V6.5625H49.1875H53.875C54.9856 6.5625 56.0507 7.00368 56.836 7.78899C57.6213 8.5743 58.0625 9.63941 58.0625 10.75V14.4994C58.0595 17.1011 57.0247 19.5954 55.1851 21.4351C53.3454 23.2747 50.8511 24.3095 48.2494 24.3125H48.0156H47.6649L47.5455 24.6422C45.1521 31.251 39.3032 36.2046 32.2404 37.2341L31.8125 37.2965V37.7289V41.6875V42.1875H32.3125H37C37.6133 42.1875 38.2015 42.4311 38.6352 42.8648C39.0689 43.2985 39.3125 43.8867 39.3125 44.5C39.3125 45.1133 39.0689 45.7015 38.6352 46.1352C38.2015 46.5689 37.6133 46.8125 37 46.8125H22C21.3867 46.8125 20.7985 46.5689 20.3648 46.1352C19.9311 45.7015 19.6875 45.1133 19.6875 44.5C19.6875 43.8867 19.9311 43.2985 20.3648 42.8648C20.7985 42.4311 21.3867 42.1875 22 42.1875H26.6875H27.1875V41.6875V37.7383V37.3057L26.7594 37.2435C23.2953 36.7402 20.0343 35.301 17.3279 33.0809C14.6215 30.8608 12.5725 27.9441 11.4017 24.6453L11.2836 24.3125H10.9305H10.7506C8.14889 24.3095 5.65461 23.2747 3.81494 21.4351C1.97534 19.5955 0.940527 17.1013 0.9375 14.4997V10.75C0.9375 9.63941 1.37868 8.5743 2.16399 7.78899C2.55284 7.40014 3.01446 7.0917 3.52251 6.88125C4.03056 6.67081 4.57509 6.5625 5.125 6.5625H9.8125H10.3125V6.0625V5.125C10.3125 4.01441 10.7537 2.9493 11.539 2.16399C12.3243 1.37868 13.3894 0.9375 14.5 0.9375H44.5C45.6106 0.9375 46.6757 1.37868 47.461 2.16399C48.2463 2.9493 48.6875 4.01441 48.6875 5.125V6.0625ZM5.5625 14.5V14.5001C5.56274 15.6997 5.97874 16.8621 6.73966 17.7895C7.50058 18.7169 8.55939 19.3519 9.73584 19.5864L10.3814 19.7151L10.3322 19.0587C10.3127 18.7992 10.3125 18.5367 10.3125 18.25V11.6875V11.1875H9.8125H6.0625H5.5625V11.6875V14.5ZM15.4375 5.5625H14.9375V6.0625V18.25C14.9374 20.1718 15.3178 22.0746 16.0566 23.8487C16.7954 25.6228 17.8781 27.2332 19.2422 28.5869C20.6063 29.9406 22.2248 31.011 24.0045 31.7362C25.7842 32.4614 27.6899 32.8272 29.6116 32.8125C37.5878 32.7517 44.0625 26.1184 44.0625 18.0391V6.0625V5.5625H43.5625H15.4375ZM48.6601 19.0718L48.6259 19.7136L49.2564 19.5889C50.4347 19.3559 51.4956 18.7212 52.2582 17.7931C53.0207 16.8651 53.4375 15.7011 53.4375 14.5V11.6875V11.1875H52.9375H49.1875H48.6875V11.6875V18.0391C48.6875 18.3865 48.6784 18.7292 48.6601 19.0718Z" fill="black" stroke="#FABE75"/>
</svg>
