<svg width="14" height="13" viewBox="0 0 14 13" fill="none" xmlns="http://www.w3.org/2000/svg">
<path d="M0.666992 10.4207C1.30999 10.7764 5.96399 13.459 9.27366 11.3914C12.583 9.3237 12.4003 5.76137 12.4003 4.1287C12.7003 3.5007 13.3337 3.18137 13.3337 1.48137C12.7117 2.05603 12.0933 2.25137 11.4787 2.06803C10.8767 1.15003 10.0483 0.743701 8.99333 0.849701C7.41133 1.0087 6.83266 2.5607 7.00299 4.56903C4.56366 5.80237 2.65099 3.6747 1.66499 2.06803C1.33566 3.33337 1.01833 4.8527 1.66499 6.53303C2.09633 7.6537 3.13333 8.6007 4.77533 9.37503C3.11099 10.2767 1.74166 10.6257 0.666992 10.4207Z" stroke="#DFDFDF" stroke-width="1.33333" stroke-linejoin="round"/>
</svg>
